<svg xmlns="http://www.w3.org/2000/svg" width="89.5" height="66.851"><defs><style>.a{fill:#76bb8a}</style></defs><path class="a" d="M62.511 20.978l-8.45 14.766a2.121 2.121 0 01-1.325.773H35.841a2.122 2.122 0 01-1.326-.773l-8.447-14.766a2.166 2.166 0 010-1.546l8.447-14.767a2.123 2.123 0 011.326-.772h16.894a2.122 2.122 0 011.325.772l8.447 14.767a2.166 2.166 0 010 1.546m3.608-3.024l-8.982-15.7A4.941 4.941 0 0053.27.002H35.311a4.939 4.939 0 00-3.863 2.252l-8.982 15.7a5.033 5.033 0 000 4.5l8.982 15.7a4.94 4.94 0 003.863 2.26h17.96a4.941 4.941 0 003.863-2.251l8.982-15.7a5.038 5.038 0 000-4.5"/><path class="a" d="M30.94 20.468h13.348v2.859H30.94zm2.617 5.128h10.731v2.86H33.557zm2.617 5.128h8.113v2.86h-8.113zM12.39 56.622a81.61 81.61 0 014.31 8.518.5.5 0 01-.279.725l-.8.342a.481.481 0 01-.7-.3 82.193 82.193 0 00-4.09-8.418.487.487 0 01.2-.744l.638-.343a.483.483 0 01.718.221m-6.244.785a32.083 32.083 0 01-4.07 8.519.5.5 0 01-.738.161l-.618-.342a.468.468 0 01-.18-.745 32.594 32.594 0 003.711-8.216.467.467 0 01.679-.342l.877.3a.479.479 0 01.339.664M17.036 53.3v.04a.478.478 0 01-.539.544H.539A.479.479 0 010 53.34v-.04a.479.479 0 01.539-.544h6.963v-3.2a.478.478 0 01.539-.544h.958a.478.478 0 01.539.544v3.2h6.963a.478.478 0 01.539.544m16.618 7.691h4.669v-3h-4.669zm0-3.967h4.669v-2.859h-4.669zm-5.925-3.886h4.569a27.2 27.2 0 002.174-2.276h-5.127a18.921 18.921 0 01-1.616 2.276m-.1 3.886h4.07v-2.859h-4.07zm-.2 3.967h4.27v-3h-4.07a27.723 27.723 0 01-.2 3m2.754-11.719c-.08.161-.159.362-.28.6h6.025a.478.478 0 01.539.544v.04a1.043 1.043 0 01-.219.684 23.139 23.139 0 01-1.9 1.994h5.406a.478.478 0 01.539.544V64.23c0 2.134-.259 2.416-2.633 2.416-.24 0-1.058-.039-2.414-.08-.359-.02-.559-.2-.559-.544-.02-.343.18-.524.559-.5 1.276.04 2 .1 2.195.1.858 0 .878-.02.878-1.329v-2.316H27.277a11.491 11.491 0 01-1.836 4.611.469.469 0 01-.758.121l-.579-.483a.532.532 0 01-.139-.745c1.217-2.014 1.7-4.41 1.7-8.558v-1.631l-.837.684a.429.429 0 01-.738-.161l-.2-.4a.553.553 0 01.159-.746 16.5 16.5 0 004.37-5.879.552.552 0 01.678-.343l.738.141a.445.445 0 01.36.685m24.231 3.119a24.95 24.95 0 012.155 1.128 9.8 9.8 0 001.316-1.309c-.358-.241-.757-.544-1.256-.886a14.488 14.488 0 01-2.215 1.067m4.35-2.759a12.223 12.223 0 01-1.117.987l1.077.745a.468.468 0 01.1.765l-.24.3.02.02c.379.141.459.443.179.725a10.147 10.147 0 01-1.137 1.007l1.077.745a.477.477 0 01.1.765l-.06.08a.5.5 0 01-.779.081c-.6-.443-1.057-.765-1.356-.987a14.1 14.1 0 01-2.055 1.007.63.63 0 01-.738-.142c-.26-.241-.18-.5.2-.664a15.38 15.38 0 001.556-.846c-.579-.342-1.058-.624-1.437-.805-.339-.182-.419-.443-.18-.745l.16-.2-.24-.221c-.3-.281-.24-.584.14-.745a10.165 10.165 0 001.556-.845c-.579-.343-1.058-.624-1.437-.805a.45.45 0 01-.18-.745.485.485 0 01.678-.121 18.744 18.744 0 011.915.967 10.714 10.714 0 001.038-.967.583.583 0 01.738-.181l.239.1c.379.161.459.443.18.725m-9.9.443c1.137-.121 2.474-.363 4.01-.665a.514.514 0 11.2 1.007c-.9.181-1.816.322-2.694.463l.04 1.088h2.493a.478.478 0 01.539.543c0 .161-.179.241-.539.241H50.48l.06 1.47h2.393a.479.479 0 01.539.544c0 .161-.179.261-.539.261H50.58l.06 1.531h11.532l.04-1.531h-2.334a.478.478 0 01-.539-.543c0-.162.179-.262.539-.262h2.374l.04-1.47h-2.414a.478.478 0 01-.539-.544q0-.242.539-.241h2.453l.06-1.41h-2.634a.478.478 0 01-.538-.544c0-.261.179-.4.538-.4h4.13a.485.485 0 01.539.564l-.279 6.383h.638a.478.478 0 01.539.544v2.215a.478.478 0 01-.539.543h-.9a.478.478 0 01-.539-.543v-1.833H49.458v1.833a.478.478 0 01-.539.543h-.9a.478.478 0 01-.539-.543v-2.215a.478.478 0 01.539-.544h.619l-.259-5.9a.506.506 0 01.5-.584m13.387 9.3a.67.67 0 01-.359.645 32.071 32.071 0 01-4.768 2.4h7.741a.478.478 0 01.539.544c0 .3-.179.463-.539.463h-7.162v2.053c0 1.168-.3 1.37-2.613 1.37-.8 0-1.716-.02-2.774-.081a.526.526 0 01-.538-.544c-.02-.342.179-.524.559-.5 1.3.04 2.135.1 2.534.1.878 0 .778.1.778-.826v-1.57h-7.741a.478.478 0 01-.539-.544c0-.3.179-.463.539-.463h7.741v-.383a.478.478 0 01.539-.544h.559a37.271 37.271 0 003.372-1.631h-9.058a.478.478 0 01-.538-.543c0-.242.179-.383.538-.383H61.73c.36 0 .539.161.539.443m24.478-4.776a.472.472 0 01-.539.523h-5.527a.479.479 0 01-.539-.543c0-.322.18-.483.539-.483h5.522c.359 0 .539.181.539.5m2.334-3.02v2.7a.478.478 0 01-.539.543h-.918a.478.478 0 01-.539-.543v-2.215h-7.322v2.215a.478.478 0 01-.539.543h-.858a.478.478 0 01-.539-.543v-2.7a.479.479 0 01.539-.544h3.851v-1.691a.478.478 0 01.539-.544h.958a.478.478 0 01.539.544v1.691h4.289a.479.479 0 01.539.544m-.28 6.726a.478.478 0 01-.538.543h-2.733v5.618c0 .926-.139.906.978.906.638 0 .738 0 .938-.544a14.132 14.132 0 00.2-2.558c.02-.383.22-.564.579-.523l.778.08a.508.508 0 01.5.584c-.02.6-.02.966-.08 1.57a2.675 2.675 0 01-.718 2.115 2.131 2.131 0 01-.9.282 13.537 13.537 0 01-1.357.06c-2.494 0-2.893-.242-2.893-1.47v-6.122h-1.157c-.04 4.209-1.337 6.162-5.427 7.733a.536.536 0 01-.718-.242l-.06-.121a.449.449 0 01.24-.725c2.933-1.188 3.95-2.879 4.03-6.645h-1.855a.478.478 0 01-.539-.543.472.472 0 01.539-.524h9.656a.472.472 0 01.538.524m-11.252-7.169c-1.058 2.719-1.536 3.685-1.915 4.652a6.23 6.23 0 011.8 4.47c0 1.692-.8 2.558-2.793 2.558a.511.511 0 01-.539-.483c-.06-.322.12-.524.5-.524h-.16c.859 0 1.2-.362 1.2-1.852a5.73 5.73 0 00-1.456-3.806.644.644 0 01-.1-.745 38.154 38.154 0 001.815-4.772h-2.374v15.526a.478.478 0 01-.539.543h-.681a.478.478 0 01-.539-.543V50.217a.479.479 0 01.539-.544h4.848a.478.478 0 01.539.544v.241a1.748 1.748 0 01-.14.685"/></svg>