<svg xmlns="http://www.w3.org/2000/svg" width="48" height="48"><path d="M24 18.048A5.952 5.952 0 1029.952 24 5.952 5.952 0 0024 18.048zm23.832-5.88a15.672 15.672 0 00-1.008-5.424 9.6 9.6 0 00-5.568-5.568A15.672 15.672 0 0035.832.168C32.736 0 31.824 0 24 0s-8.736 0-11.832.168a15.672 15.672 0 00-5.424 1.008 9.6 9.6 0 00-5.568 5.568 15.672 15.672 0 00-1.008 5.424C0 15.264 0 16.176 0 24s0 8.736.168 11.832a16.464 16.464 0 001.008 5.448 9.456 9.456 0 002.184 3.36 9.336 9.336 0 003.384 2.184 15.672 15.672 0 005.424 1.008C15.264 48 16.176 48 24 48s8.736 0 11.832-.168a15.672 15.672 0 005.424-1.008 9.336 9.336 0 003.384-2.184 9.456 9.456 0 002.184-3.36 15.84 15.84 0 001.008-5.448C48 32.736 48 31.824 48 24s0-8.736-.168-11.832zm-6.1 19.2a13.752 13.752 0 01-.936 4.32 9.264 9.264 0 01-5.108 5.112 13.752 13.752 0 01-4.344.84H16.656a13.752 13.752 0 01-4.344-.84A8.934 8.934 0 017.2 35.688a13.176 13.176 0 01-.816-4.344V16.656a13.176 13.176 0 01.816-4.344 8.424 8.424 0 012.064-3.144A8.616 8.616 0 0112.312 7.2a13.752 13.752 0 014.344-.84h14.688a13.752 13.752 0 014.344.84 8.934 8.934 0 015.112 5.112 13.752 13.752 0 01.84 4.344V24c0 4.944.168 5.448.1 7.344zM37.9 13.512a5.712 5.712 0 00-3.384-3.384A9.6 9.6 0 0031.2 9.6H16.8a9.6 9.6 0 00-3.312.624 5.712 5.712 0 00-3.388 3.264 10.248 10.248 0 00-.5 3.312v14.4a10.248 10.248 0 00.624 3.312 5.712 5.712 0 003.384 3.388 10.248 10.248 0 003.192.624h14.4a9.6 9.6 0 003.312-.624 5.712 5.712 0 003.388-3.388 9.6 9.6 0 00.62-3.312V16.8a9.072 9.072 0 00-.624-3.312zM24 33.168A9.144 9.144 0 0114.856 24 9.168 9.168 0 1124 33.168zm9.6-16.536a2.16 2.16 0 010-4.3 2.16 2.16 0 010 4.3z" fill="#fff"/></svg>