<svg xmlns="http://www.w3.org/2000/svg" width="48" height="48"><path d="M28.272 17.9a.912.912 0 00-.912.912v4.008L24 18.36a.96.96 0 00-.792-.456.912.912 0 00-.912.912v6.816a.912.912 0 00.912.912.912.912 0 00.912-.912V21.6l3.336 4.584a.648.648 0 00.36.264.768.768 0 00.336 0 .792.792 0 00.648-.048l.24-.168a.936.936 0 00.264-.648v-6.768a.912.912 0 00-1.032-.912zM17.28 24.648h-2.544v-5.832a.912.912 0 00-.912-.912.912.912 0 00-.912.912v6.816a.912.912 0 00.912.912h3.456a.936.936 0 00.936-.912.936.936 0 00-.936-.984zm2.664-6.748a.936.936 0 00-.936.912v6.816a.936.936 0 00.936.912.912.912 0 00.912-.912v-6.812a.912.912 0 00-.912-.912zM38.184 0H9.816A9.84 9.84 0 000 9.816v28.368A9.84 9.84 0 009.816 48h28.368A9.84 9.84 0 0048 38.184V9.816A9.84 9.84 0 0038.184 0zm.744 29.472a3.719 3.719 0 01-.312.408A13.2 13.2 0 0136.7 31.8c-4.8 4.488-12.864 9.864-13.944 9.024s1.536-4.224-1.272-4.8a2.4 2.4 0 01-.6 0c-8.256-1.152-14.4-6.936-14.4-13.872 0-7.8 7.9-14.112 17.616-14.112s17.616 6.312 17.616 14.112a12 12 0 01-2.784 7.32zm-4.1-11.544H31.2a.912.912 0 00-.912.912v6.816a.912.912 0 00.912.912h3.552a.912.912 0 00.912-.912.912.912 0 00-.912-.912H32.28V23.3h2.544a.936.936 0 00.912-.936.912.912 0 00-.912-.912H32.28v-1.46h2.544a.912.912 0 00.912-.912.912.912 0 00-.912-1.152z" fill="#fff"/></svg>